<svg xmlns="http://www.w3.org/2000/svg" xmlns:xlink="http://www.w3.org/1999/xlink" width="518" zoomAndPan="magnify" viewBox="0 0 388.5 89.999999" height="120" preserveAspectRatio="xMidYMid meet" version="1.0"><defs><clipPath id="a2dc9ae394"><path d="M 0 0.0585938 L 388 0.0585938 L 388 89.941406 L 0 89.941406 Z M 0 0.0585938 " clip-rule="nonzero"/></clipPath><clipPath id="fb475ae4e3"><path d="M 11 0.0585938 L 83 0.0585938 L 83 24 L 11 24 Z M 11 0.0585938 " clip-rule="nonzero"/></clipPath><clipPath id="aeda7a743e"><path d="M 12 68 L 84 68 L 84 89.941406 L 12 89.941406 Z M 12 68 " clip-rule="nonzero"/></clipPath></defs><g clip-path="url(#a2dc9ae394)"><path fill="#ffffff" d="M 13.480469 90.691406 C 9.285156 90.691406 5.089844 90.691406 0.746094 90.691406 C 0.746094 85.683594 0.746094 80.671875 0.933594 75.058594 C 6.382812 78.8125 8.113281 79.066406 13.933594 75.734375 C 19.941406 72.292969 26 68.898438 31.738281 65.042969 C 35.980469 62.199219 38.667969 58.214844 38.265625 52.582031 C 37.941406 48.109375 38.089844 43.59375 38.226562 39.105469 C 38.398438 33.378906 35.878906 29.203125 31.175781 26.242188 C 26.335938 23.199219 21.257812 20.5 16.578125 17.234375 C 11.316406 13.554688 6.304688 12.019531 0.96875 16.839844 C 0.894531 16.738281 0.820312 16.636719 0.746094 16.535156 C 0.746094 11.355469 0.746094 6.171875 0.746094 0.808594 C 4.753906 0.808594 8.765625 0.808594 13.382812 1.003906 C 10.960938 5.601562 11.195312 7.261719 15.660156 10.097656 C 20.378906 13.097656 25.40625 15.644531 29.960938 18.863281 C 35.050781 22.46875 40.46875 23.730469 46.601562 23.34375 C 51.808594 23.019531 57.058594 23.164062 62.285156 23.316406 C 65.984375 23.425781 68.925781 22.035156 71.480469 19.558594 C 73.625 17.480469 75.570312 15.167969 77.863281 13.269531 C 81.871094 9.945312 84.46875 6.269531 82.390625 0.808594 C 184.464844 0.808594 286.535156 0.808594 388.675781 0.808594 C 388.675781 30.707031 388.675781 60.605469 388.675781 90.691406 C 286.863281 90.691406 184.980469 90.691406 82.507812 90.453125 C 84.117188 86.566406 83.363281 83.503906 80.289062 80.683594 C 77.542969 78.160156 74.984375 75.429688 72.347656 72.785156 C 69.265625 69.691406 65.71875 68.015625 61.179688 68.164062 C 54.339844 68.382812 47.484375 68.128906 40.640625 68.28125 C 38.761719 68.324219 36.6875 68.714844 35.070312 69.613281 C 28.914062 73.039062 22.863281 76.667969 16.875 80.386719 C 15.28125 81.378906 13.300781 82.75 12.851562 84.335938 C 12.308594 86.238281 13.207031 88.554688 13.480469 90.691406 M 284.601562 61.886719 C 281.894531 62.507812 279.210938 63.273438 276.480469 63.730469 C 268.320312 65.089844 261.054688 59.40625 262.527344 50.226562 C 272.246094 50.226562 282.027344 50.226562 292.378906 50.226562 C 292.007812 46.566406 291.886719 43.269531 291.304688 40.0625 C 290.152344 33.6875 287.027344 28.246094 280.609375 26.453125 C 273.5 24.464844 266.375 24.449219 260.441406 30.507812 C 254.554688 36.511719 252.386719 43.660156 253.273438 51.671875 C 253.964844 57.914062 255.933594 63.726562 261.695312 67.574219 C 268.535156 72.144531 275.710938 71.875 283.082031 69.660156 C 289.417969 67.753906 289.945312 66.695312 288.601562 59.699219 C 287.351562 60.351562 286.21875 60.941406 284.601562 61.886719 M 355.785156 39.582031 C 355.726562 43.53125 352.453125 42.183594 350.445312 42.710938 C 345.417969 44.039062 340.097656 44.574219 335.328125 46.496094 C 326.5625 50.023438 327.003906 64.175781 333.875 68.632812 C 340.277344 72.785156 349.855469 71.765625 355.785156 64.808594 C 355.785156 66.53125 355.785156 67.957031 355.785156 69.53125 C 358.597656 69.53125 361.152344 69.53125 364.015625 69.53125 C 364.015625 58.890625 364.34375 48.421875 363.894531 37.988281 C 363.613281 31.421875 359.445312 26.59375 353.09375 25.871094 C 348.105469 25.300781 342.699219 25.847656 337.851562 27.210938 C 331.839844 28.902344 331.648438 30.214844 333.167969 37.003906 C 335.257812 35.898438 337.222656 34.746094 339.277344 33.785156 C 347.234375 30.066406 352.957031 31.890625 355.785156 39.582031 M 135.46875 58.046875 C 136.058594 59.371094 136.542969 60.75 137.246094 62.007812 C 141.9375 70.363281 152.808594 73.113281 163.207031 69.820312 C 170.765625 67.421875 169.507812 66.679688 168.859375 60.191406 C 154.277344 68.394531 142.511719 63.074219 142.480469 50.117188 C 152.375 50.117188 162.277344 50.117188 172.277344 50.117188 C 172.277344 47.789062 172.289062 45.921875 172.273438 44.050781 C 172.1875 34.097656 166.992188 27.066406 158.738281 25.742188 C 148.507812 24.097656 141.023438 27.140625 136.257812 37.386719 C 133.167969 44.035156 133.8125 50.753906 135.46875 58.046875 M 186.308594 27.808594 C 177.402344 32.460938 178.5 43.238281 183.585938 46.8125 C 186.449219 48.820312 189.8125 50.109375 192.9375 51.753906 C 195.085938 52.882812 197.445312 53.777344 199.285156 55.296875 C 202.09375 57.609375 201.433594 61.792969 198.03125 62.984375 C 195.757812 63.78125 193.074219 64.171875 190.714844 63.808594 C 187.015625 63.234375 183.441406 61.871094 179.9375 60.878906 C 179.9375 63.378906 179.9375 66.097656 179.9375 68.597656 C 180.957031 69.011719 181.730469 69.390625 182.546875 69.644531 C 189.707031 71.867188 196.714844 71.929688 203.507812 68.269531 C 210.289062 64.617188 212.164062 54.601562 205.988281 50.066406 C 201.921875 47.082031 197.109375 45.082031 192.554688 42.792969 C 190.132812 41.574219 187.574219 40.199219 188.246094 37.207031 C 188.964844 33.996094 191.523438 31.972656 195.007812 32.324219 C 199.167969 32.746094 203.289062 33.605469 207.480469 34.285156 C 207.480469 32.804688 207.644531 30.914062 207.40625 29.078125 C 207.292969 28.195312 206.546875 26.84375 205.855469 26.679688 C 199.457031 25.175781 193.027344 24.207031 186.308594 27.808594 M 230.441406 43.453125 C 227.359375 42.078125 224.4375 40.300781 225.5625 36.371094 C 226.621094 32.679688 229.886719 31.839844 233.316406 32.3125 C 236.945312 32.8125 240.523438 33.675781 244.183594 34.394531 C 244.183594 33.457031 243.96875 32.285156 244.222656 31.222656 C 245.148438 27.351562 242.71875 25.96875 239.734375 25.671875 C 236.03125 25.304688 232.074219 24.832031 228.5625 25.726562 C 222.878906 27.175781 217.816406 29.910156 217.101562 36.953125 C 216.558594 42.292969 218.414062 46.527344 223.664062 48.917969 C 227.75 50.777344 231.875 52.59375 235.789062 54.773438 C 238.671875 56.375 238.996094 59.015625 236.9375 61.550781 C 234.578125 64.457031 231.164062 64.804688 227.929688 64.117188 C 224.101562 63.304688 220.433594 61.75 216.472656 60.445312 C 216.472656 62.191406 216.199219 64.210938 216.570312 66.097656 C 216.804688 67.292969 217.785156 68.917969 218.808594 69.289062 C 226.097656 71.90625 233.382812 72.300781 240.378906 68.222656 C 244.640625 65.742188 246.953125 62.183594 246.429688 57.085938 C 245.988281 52.78125 244.207031 49.488281 239.945312 47.757812 C 236.898438 46.523438 233.984375 44.96875 230.441406 43.453125 M 103.910156 27.785156 C 103.335938 29.882812 102.757812 31.980469 102.03125 34.636719 C 105.335938 34.636719 107.632812 34.636719 109.832031 34.636719 C 109.972656 35.234375 110.074219 35.46875 110.074219 35.703125 C 110.089844 43.8125 110.203125 51.921875 110.082031 60.03125 C 109.910156 71.554688 119.214844 73.949219 127.425781 71.847656 C 128.019531 71.695312 128.683594 70.617188 128.757812 69.914062 C 128.949219 68.144531 128.824219 66.34375 128.824219 64.445312 C 122.417969 66.066406 117.910156 65.953125 118.335938 57.316406 C 118.402344 55.945312 118.34375 54.570312 118.34375 53.199219 C 118.34375 47.015625 118.34375 40.835938 118.34375 34.304688 C 122.164062 34.304688 125.457031 34.304688 128.648438 34.304688 C 128.648438 31.980469 128.648438 30.023438 128.648438 27.714844 C 125.183594 27.714844 121.878906 27.714844 118.28125 27.714844 C 118.28125 23.296875 118.28125 19.242188 118.28125 14.796875 C 116.511719 15.351562 115.167969 15.953125 113.765625 16.171875 C 110.773438 16.640625 109.667969 18.199219 110.054688 21.214844 C 110.320312 23.269531 110.105469 25.382812 110.105469 27.773438 C 108.042969 27.773438 106.328125 27.773438 103.910156 27.785156 M 301.109375 62.570312 C 301.109375 64.894531 301.109375 67.21875 301.109375 69.429688 C 304.402344 69.429688 307.1875 69.429688 310.097656 69.429688 C 310.097656 61.039062 309.925781 52.929688 310.164062 44.832031 C 310.3125 39.804688 312.09375 35.25 317.441406 33.667969 C 319.757812 32.980469 322.449219 33.554688 325.078125 33.554688 C 325.078125 32.195312 324.960938 30.566406 325.105469 28.957031 C 325.335938 26.363281 324.292969 25.609375 321.695312 25.433594 C 316.449219 25.082031 313.433594 28.332031 310.03125 32.15625 C 310.03125 29.929688 310.03125 28.253906 310.03125 26.496094 C 306.960938 26.496094 304.164062 26.496094 301.109375 26.496094 C 301.109375 38.417969 301.109375 50.125 301.109375 62.570312 M 65.015625 49.988281 C 65.289062 45.324219 65.816406 40.753906 61.539062 37.128906 C 57.558594 33.753906 50.53125 33.382812 46.046875 36.902344 C 42.742188 39.496094 41.550781 47.683594 43.605469 51.527344 C 47.671875 59.140625 61.421875 59.398438 65.015625 49.988281 Z M 65.015625 49.988281 " fill-opacity="1" fill-rule="nonzero"/></g><path fill="#fa776c" d="M 0.746094 16.886719 C 0.820312 16.636719 0.894531 16.738281 0.96875 16.839844 C 6.304688 12.019531 11.316406 13.554688 16.578125 17.234375 C 21.257812 20.5 26.335938 23.199219 31.175781 26.242188 C 35.878906 29.203125 38.398438 33.378906 38.226562 39.105469 C 38.089844 43.59375 37.941406 48.109375 38.265625 52.582031 C 38.667969 58.214844 35.980469 62.199219 31.738281 65.042969 C 26 68.898438 19.941406 72.292969 13.933594 75.734375 C 8.113281 79.066406 6.382812 78.8125 0.933594 74.707031 C 0.746094 55.71875 0.746094 36.480469 0.746094 16.886719 Z M 0.746094 16.886719 " fill-opacity="1" fill-rule="nonzero"/><g clip-path="url(#fb475ae4e3)"><path fill="#624cf5" d="M 82.042969 0.808594 C 84.46875 6.269531 81.871094 9.945312 77.863281 13.269531 C 75.570312 15.167969 73.625 17.480469 71.480469 19.558594 C 68.925781 22.035156 65.984375 23.425781 62.285156 23.316406 C 57.058594 23.164062 51.808594 23.019531 46.601562 23.34375 C 40.46875 23.730469 35.050781 22.46875 29.960938 18.863281 C 25.40625 15.644531 20.378906 13.097656 15.660156 10.097656 C 11.195312 7.261719 10.960938 5.601562 13.738281 1.003906 C 36.21875 0.808594 58.953125 0.808594 82.042969 0.808594 Z M 82.042969 0.808594 " fill-opacity="1" fill-rule="nonzero"/></g><g clip-path="url(#aeda7a743e)"><path fill="#624cf5" d="M 13.832031 90.691406 C 13.207031 88.554688 12.308594 86.238281 12.851562 84.335938 C 13.300781 82.75 15.28125 81.378906 16.875 80.386719 C 22.863281 76.667969 28.914062 73.039062 35.070312 69.613281 C 36.6875 68.714844 38.761719 68.324219 40.640625 68.28125 C 47.484375 68.128906 54.339844 68.382812 61.179688 68.164062 C 65.71875 68.015625 69.265625 69.691406 72.347656 72.785156 C 74.984375 75.429688 77.542969 78.160156 80.289062 80.683594 C 83.363281 83.503906 84.117188 86.566406 82.15625 90.453125 C 59.65625 90.691406 36.917969 90.691406 13.832031 90.691406 Z M 13.832031 90.691406 " fill-opacity="1" fill-rule="nonzero"/></g><path fill="#624cf5" d="M 284.84375 61.710938 C 286.21875 60.941406 287.351562 60.351562 288.601562 59.699219 C 289.945312 66.695312 289.417969 67.753906 283.082031 69.660156 C 275.710938 71.875 268.535156 72.144531 261.695312 67.574219 C 255.933594 63.726562 253.964844 57.914062 253.273438 51.671875 C 252.386719 43.660156 254.554688 36.511719 260.441406 30.507812 C 266.375 24.449219 273.5 24.464844 280.609375 26.453125 C 287.027344 28.246094 290.152344 33.6875 291.304688 40.0625 C 291.886719 43.269531 292.007812 46.566406 292.378906 50.226562 C 282.027344 50.226562 272.246094 50.226562 262.527344 50.226562 C 261.054688 59.40625 268.320312 65.089844 276.480469 63.730469 C 279.210938 63.273438 281.894531 62.507812 284.84375 61.710938 M 272.277344 43.503906 C 275.996094 43.503906 279.714844 43.503906 283.464844 43.503906 C 282.078125 34.597656 279.917969 32.210938 273.429688 32.265625 C 267.535156 32.316406 263.273438 36.488281 262.285156 43.503906 C 265.398438 43.503906 268.46875 43.503906 272.277344 43.503906 Z M 272.277344 43.503906 " fill-opacity="1" fill-rule="nonzero"/><path fill="#624cf5" d="M 355.765625 39.273438 C 352.957031 31.890625 347.234375 30.066406 339.277344 33.785156 C 337.222656 34.746094 335.257812 35.898438 333.167969 37.003906 C 331.648438 30.214844 331.839844 28.902344 337.851562 27.210938 C 342.699219 25.847656 348.105469 25.300781 353.09375 25.871094 C 359.445312 26.59375 363.613281 31.421875 363.894531 37.988281 C 364.34375 48.421875 364.015625 58.890625 364.015625 69.53125 C 361.152344 69.53125 358.597656 69.53125 355.785156 69.53125 C 355.785156 67.957031 355.785156 66.53125 355.785156 64.808594 C 349.855469 71.765625 340.277344 72.785156 333.875 68.632812 C 327.003906 64.175781 326.5625 50.023438 335.328125 46.496094 C 340.097656 44.574219 345.417969 44.039062 350.445312 42.710938 C 352.453125 42.183594 355.726562 43.53125 355.765625 39.273438 M 350.402344 62.734375 C 354.835938 59.195312 356.671875 54.699219 355.390625 48.359375 C 350.726562 49.246094 345.964844 49.667969 341.546875 51.121094 C 336.867188 52.664062 335.90625 56.492188 338.304688 60.882812 C 340.191406 64.332031 344.257812 65.0625 350.402344 62.734375 Z M 350.402344 62.734375 " fill-opacity="1" fill-rule="nonzero"/><path fill="#624cf5" d="M 135.265625 57.8125 C 133.8125 50.753906 133.167969 44.035156 136.257812 37.386719 C 141.023438 27.140625 148.507812 24.097656 158.738281 25.742188 C 166.992188 27.066406 172.1875 34.097656 172.273438 44.050781 C 172.289062 45.921875 172.277344 47.789062 172.277344 50.117188 C 162.277344 50.117188 152.375 50.117188 142.480469 50.117188 C 142.511719 63.074219 154.277344 68.394531 168.859375 60.191406 C 169.507812 66.679688 170.765625 67.421875 163.207031 69.820312 C 152.808594 73.113281 141.9375 70.363281 137.246094 62.007812 C 136.542969 60.75 136.058594 59.371094 135.265625 57.8125 M 161.9375 43.5 C 162.636719 42.804688 163.855469 42.171875 163.941406 41.40625 C 164.289062 38.414062 161.285156 34.113281 158.410156 33.015625 C 150.941406 30.167969 144.167969 34.699219 142.882812 43.5 C 149.007812 43.5 155.117188 43.5 161.9375 43.5 Z M 161.9375 43.5 " fill-opacity="1" fill-rule="nonzero"/><path fill="#624cf5" d="M 186.59375 27.757812 C 193.027344 24.207031 199.457031 25.175781 205.855469 26.679688 C 206.546875 26.84375 207.292969 28.195312 207.40625 29.078125 C 207.644531 30.914062 207.480469 32.804688 207.480469 34.285156 C 203.289062 33.605469 199.167969 32.746094 195.007812 32.324219 C 191.523438 31.972656 188.964844 33.996094 188.246094 37.207031 C 187.574219 40.199219 190.132812 41.574219 192.554688 42.792969 C 197.109375 45.082031 201.921875 47.082031 205.988281 50.066406 C 212.164062 54.601562 210.289062 64.617188 203.507812 68.269531 C 196.714844 71.929688 189.707031 71.867188 182.546875 69.644531 C 181.730469 69.390625 180.957031 69.011719 179.9375 68.597656 C 179.9375 66.097656 179.9375 63.378906 179.9375 60.878906 C 183.441406 61.871094 187.015625 63.234375 190.714844 63.808594 C 193.074219 64.171875 195.757812 63.78125 198.03125 62.984375 C 201.433594 61.792969 202.09375 57.609375 199.285156 55.296875 C 197.445312 53.777344 195.085938 52.882812 192.9375 51.753906 C 189.8125 50.109375 186.449219 48.820312 183.585938 46.8125 C 178.5 43.238281 177.402344 32.460938 186.59375 27.757812 Z M 186.59375 27.757812 " fill-opacity="1" fill-rule="nonzero"/><path fill="#624cf5" d="M 230.726562 43.503906 C 233.984375 44.96875 236.898438 46.523438 239.945312 47.757812 C 244.207031 49.488281 245.988281 52.78125 246.429688 57.085938 C 246.953125 62.183594 244.640625 65.742188 240.378906 68.222656 C 233.382812 72.300781 226.097656 71.90625 218.808594 69.289062 C 217.785156 68.917969 216.804688 67.292969 216.570312 66.097656 C 216.199219 64.210938 216.472656 62.191406 216.472656 60.445312 C 220.433594 61.75 224.101562 63.304688 227.929688 64.117188 C 231.164062 64.804688 234.578125 64.457031 236.9375 61.550781 C 238.996094 59.015625 238.671875 56.375 235.789062 54.773438 C 231.875 52.59375 227.75 50.777344 223.664062 48.917969 C 218.414062 46.527344 216.558594 42.292969 217.101562 36.953125 C 217.816406 29.910156 222.878906 27.175781 228.5625 25.726562 C 232.074219 24.832031 236.03125 25.304688 239.734375 25.671875 C 242.71875 25.96875 245.148438 27.351562 244.222656 31.222656 C 243.96875 32.285156 244.183594 33.457031 244.183594 34.394531 C 240.523438 33.675781 236.945312 32.8125 233.316406 32.3125 C 229.886719 31.839844 226.621094 32.679688 225.5625 36.371094 C 224.4375 40.300781 227.359375 42.078125 230.726562 43.503906 Z M 230.726562 43.503906 " fill-opacity="1" fill-rule="nonzero"/><path fill="#fa776c" d="M 104.261719 27.777344 C 106.328125 27.773438 108.042969 27.773438 110.105469 27.773438 C 110.105469 25.382812 110.320312 23.269531 110.054688 21.214844 C 109.667969 18.199219 110.773438 16.640625 113.765625 16.171875 C 115.167969 15.953125 116.511719 15.351562 118.28125 14.796875 C 118.28125 19.242188 118.28125 23.296875 118.28125 27.714844 C 121.878906 27.714844 125.183594 27.714844 128.648438 27.714844 C 128.648438 30.023438 128.648438 31.980469 128.648438 34.304688 C 125.457031 34.304688 122.164062 34.304688 118.34375 34.304688 C 118.34375 40.835938 118.34375 47.015625 118.34375 53.199219 C 118.34375 54.570312 118.402344 55.945312 118.335938 57.316406 C 117.910156 65.953125 122.417969 66.066406 128.824219 64.445312 C 128.824219 66.34375 128.949219 68.144531 128.757812 69.914062 C 128.683594 70.617188 128.019531 71.695312 127.425781 71.847656 C 119.214844 73.949219 109.910156 71.554688 110.082031 60.03125 C 110.203125 51.921875 110.089844 43.8125 110.074219 35.703125 C 110.074219 35.46875 109.972656 35.234375 109.832031 34.636719 C 107.632812 34.636719 105.335938 34.636719 102.03125 34.636719 C 102.757812 31.980469 103.335938 29.882812 104.261719 27.777344 Z M 104.261719 27.777344 " fill-opacity="1" fill-rule="nonzero"/><path fill="#624cf5" d="M 301.109375 62.203125 C 301.109375 50.125 301.109375 38.417969 301.109375 26.496094 C 304.164062 26.496094 306.960938 26.496094 310.03125 26.496094 C 310.03125 28.253906 310.03125 29.929688 310.03125 32.15625 C 313.433594 28.332031 316.449219 25.082031 321.695312 25.433594 C 324.292969 25.609375 325.335938 26.363281 325.105469 28.957031 C 324.960938 30.566406 325.078125 32.195312 325.078125 33.554688 C 322.449219 33.554688 319.757812 32.980469 317.441406 33.667969 C 312.09375 35.25 310.3125 39.804688 310.164062 44.832031 C 309.925781 52.929688 310.097656 61.039062 310.097656 69.429688 C 307.1875 69.429688 304.402344 69.429688 301.109375 69.429688 C 301.109375 67.21875 301.109375 64.894531 301.109375 62.203125 Z M 301.109375 62.203125 " fill-opacity="1" fill-rule="nonzero"/><path fill="#fa776c" d="M 64.804688 50.214844 C 61.421875 59.398438 47.671875 59.140625 43.605469 51.527344 C 41.550781 47.683594 42.742188 39.496094 46.046875 36.902344 C 50.53125 33.382812 57.558594 33.753906 61.539062 37.128906 C 65.816406 40.753906 65.289062 45.324219 64.804688 50.214844 Z M 64.804688 50.214844 " fill-opacity="1" fill-rule="nonzero"/><path fill="#ffffff" d="M 271.90625 43.503906 C 268.46875 43.503906 265.398438 43.503906 262.285156 43.503906 C 263.273438 36.488281 267.535156 32.316406 273.429688 32.265625 C 279.917969 32.210938 282.078125 34.597656 283.464844 43.503906 C 279.714844 43.503906 275.996094 43.503906 271.90625 43.503906 Z M 271.90625 43.503906 " fill-opacity="1" fill-rule="nonzero"/><path fill="#ffffff" d="M 350.132812 62.847656 C 344.257812 65.0625 340.191406 64.332031 338.304688 60.882812 C 335.90625 56.492188 336.867188 52.664062 341.546875 51.121094 C 345.964844 49.667969 350.726562 49.246094 355.390625 48.359375 C 356.671875 54.699219 354.835938 59.195312 350.132812 62.847656 Z M 350.132812 62.847656 " fill-opacity="1" fill-rule="nonzero"/><path fill="#ffffff" d="M 161.582031 43.5 C 155.117188 43.5 149.007812 43.5 142.882812 43.5 C 144.167969 34.699219 150.941406 30.167969 158.410156 33.015625 C 161.285156 34.113281 164.289062 38.414062 163.941406 41.40625 C 163.855469 42.171875 162.636719 42.804688 161.582031 43.5 Z M 161.582031 43.5 " fill-opacity="1" fill-rule="nonzero"/></svg>