<svg xmlns="http://www.w3.org/2000/svg" width="518" height="120" viewBox="0 0 518 120" version="1.1"><path d="M 83 12.131 C 83 18.587, 83.150 19.087, 84.924 18.524 C 96.645 14.804, 103.261 12.128, 102 11.618 C 101.175 11.284, 96.563 9.687, 91.750 8.069 L 83 5.127 83 12.131 M 81.601 25.836 C 81.281 26.354, 79.418 30.974, 77.461 36.102 C 63.402 72.943, 45.524 97.053, 29.750 100.447 C 24.784 101.515, 26.676 103.694, 35.250 106.782 C 63.814 117.068, 98.637 117.468, 127.660 107.845 C 139.238 104.005, 142.741 100.082, 134.651 100.015 C 122.551 99.915, 103.748 74.393, 89.348 38.523 C 84.377 26.141, 82.904 23.729, 81.601 25.836 M 80.595 52.250 C 76.655 75.287, 69.802 99.794, 65.439 106.453 C 62.885 110.351, 63.585 110.500, 84.505 110.500 C 106.530 110.500, 106.179 110.610, 102.105 104.987 C 96.436 97.161, 88.702 72.307, 84.906 49.716 C 83.217 39.659, 82.696 39.965, 80.595 52.250 M 71.454 58.288 C 60.850 80.038, 47.711 97.392, 39.171 100.929 C 33.925 103.102, 38.126 105.138, 54.832 108.520 C 62.358 110.044, 68.892 94.887, 75.571 60.413 C 78.854 43.466, 78.715 43.395, 71.454 58.288 M 88.046 47 C 87.988 53.614, 97.994 90.092, 102.068 98.116 C 107.256 108.334, 110.069 109.451, 121.645 105.892 C 130.624 103.131, 130.751 103.020, 126.983 101.195 C 117.321 96.515, 104.580 79.780, 94.059 57.949 C 90.759 51.102, 88.053 46.175, 88.046 47" stroke="none" fill="#ec8273" fill-rule="evenodd"/><path d="M 169.940 28.750 C 169.906 29.163, 169.794 32.650, 169.690 36.500 C 169.504 43.339, 169.437 43.507, 166.750 43.816 C 164.357 44.092, 164 44.570, 164 47.500 C 164 50.430, 164.357 50.908, 166.750 51.184 L 169.500 51.500 170 66.500 C 170.304 75.618, 170.981 82.340, 171.727 83.642 C 176.807 92.507, 192 94.838, 192 86.752 C 192 83.572, 191.857 83.455, 188.005 83.455 C 180.595 83.455, 179.554 81.284, 179.175 65.025 L 178.851 51.099 185.175 50.800 C 191.488 50.501, 191.501 50.494, 191.810 47.299 L 192.119 44.099 185.810 43.799 L 179.500 43.500 179.208 35.750 L 178.916 28 174.458 28 C 172.006 28, 169.973 28.337, 169.940 28.750 M 215.182 44.519 C 196.656 52.566, 195.726 80.474, 213.698 89.012 C 226.714 95.196, 248.964 88.503, 241.201 80.739 L 238.058 77.597 235.779 79.732 C 227.238 87.733, 211 82.699, 211 72.050 C 211 70.057, 211.517 70, 229.500 70 L 248 70 248 66.182 C 248 48.981, 230.898 37.693, 215.182 44.519 M 264.761 45.007 C 250.941 52.507, 255.835 66.538, 273.653 70.502 C 281.669 72.285, 284 73.873, 284 77.548 C 284 83.155, 271.906 85.525, 265.911 81.093 L 262.815 78.803 259.844 81.649 L 256.874 84.495 259.472 86.730 C 270.026 95.808, 290.096 91.160, 291.691 79.268 C 292.872 70.460, 289.094 66.466, 276.324 63.024 C 267.374 60.612, 264.417 58.413, 265.506 54.980 C 267.107 49.936, 276.566 49.186, 282.852 53.604 C 285.115 55.194, 285.320 55.142, 288.221 52.240 L 291.238 49.224 286.388 46.381 C 279.929 42.596, 270.328 41.986, 264.761 45.007 M 311.450 44.344 C 297.610 50.657, 301.166 66.375, 317.250 69.976 C 328.493 72.493, 331.514 75.041, 328.574 79.528 C 325.486 84.240, 316.737 84.678, 310.276 80.445 C 307.712 78.765, 301.147 82.811, 302.606 85.172 C 304.265 87.855, 313.801 91.336, 319.500 91.338 C 341.991 91.345, 344.376 67.953, 322.382 63.072 C 314.184 61.253, 311 59.450, 311 56.629 C 311 50.739, 321.055 48.446, 327.144 52.949 L 330.231 55.231 333.246 52.216 L 336.261 49.201 332.129 46.467 C 327.117 43.150, 316.465 42.056, 311.450 44.344 M 361.460 44.064 C 346.760 48.339, 341.478 71.363, 352.356 83.753 C 360.470 92.994, 379.572 94.275, 387.402 86.102 L 390.134 83.250 386.889 80.710 L 383.643 78.170 380.147 80.835 C 372.872 86.379, 360.753 83.440, 357.355 75.307 C 355.191 70.127, 355.626 70, 375.559 70 L 394 70 394 66.682 C 394 49.567, 378.820 39.016, 361.460 44.064 M 418.361 44.922 C 416.634 45.975, 414.982 47.435, 414.690 48.168 C 414.397 48.901, 414.122 48.263, 414.079 46.750 C 414.004 44.127, 413.769 44, 409 44 L 404 44 404 67.555 L 404 91.110 408.750 90.805 L 413.500 90.500 414 74.500 C 414.628 54.394, 418.091 48.368, 427.891 50.328 C 430.766 50.903, 433.124 46.627, 431.437 43.897 C 430.413 42.241, 421.628 42.930, 418.361 44.922 M 448.500 45.351 C 440.931 48.880, 440.254 50.194, 444.384 53.344 C 447.410 55.652, 447.944 55.773, 449.076 54.408 C 455.207 47.021, 468 49.240, 468 57.691 L 468 61 458.750 61.022 C 442.877 61.060, 436.527 65.850, 437.258 77.236 C 438.026 89.213, 453.684 95.776, 464.300 88.571 L 467.880 86.142 468.190 88.321 C 468.452 90.162, 469.245 90.548, 473.310 90.807 L 478.120 91.114 477.810 71.620 L 477.500 52.126 474.500 48.940 C 468.424 42.487, 457.791 41.019, 448.500 45.351 M 218.415 51.421 C 214.559 53.100, 211 57.523, 211 60.635 L 211 63 224.500 63 L 238 63 238 60.635 C 238 53.058, 226.779 47.780, 218.415 51.421 M 363.500 51.808 C 359.581 53.645, 357.368 56.511, 356.790 60.500 C 356.408 63.133, 382.592 64.226, 383.593 61.619 C 386.356 54.419, 372.435 47.621, 363.500 51.808 M 452.034 69.306 C 440.677 73.217, 446.992 85.536, 459.341 83.561 C 465.638 82.554, 468 79.763, 468 73.326 L 468 68 461.750 68.056 C 458.313 68.087, 453.940 68.650, 452.034 69.306" stroke="none" fill="#5a49ec" fill-rule="evenodd"/></svg>